<svg width="375" height="357" viewBox="0 0 375 357" fill="none" xmlns="http://www.w3.org/2000/svg">
<path d="M127.695 277.185C212.802 305.205 310.027 261.301 348.001 235.847C362.323 227.048 383.299 152.809 257.557 86.735C131.816 20.6608 58.0802 96.607 45.8959 113.79C33.7116 130.973 21.311 242.16 127.695 277.185Z" fill="#F3F3F3"/>
<path d="M214.852 302.712C294.44 253.289 328.943 150.878 336.246 105.851C339.596 89.3542 298.906 28.0575 162.982 86.1421C27.0576 144.227 32.5866 247.71 36.9436 267.615C41.3006 287.519 115.369 364.492 214.852 302.712Z" fill="#EFEFEF"/>
<path d="M176.524 308.309C265.273 295.731 331.932 210.02 354.168 168.737C362.921 153.92 347.675 74.5604 205.265 69.9519C62.8549 65.3434 31.8106 170.429 28.8003 192.148C25.79 213.867 65.5881 324.03 176.524 308.309Z" fill="#88DF86"/>
</svg>
