<svg width="375" height="385" viewBox="0 0 375 385" fill="none" xmlns="http://www.w3.org/2000/svg">
<path d="M230.531 97.1772C345.672 54.0436 412.283 115.001 260.95 280.345C225.94 318.596 155.066 350.332 129.489 340.12C109.378 332.091 83.6054 244.828 79.1305 205.693C74.2358 162.887 115.617 140.226 230.531 97.1772Z" fill="#EFEFEF"/>
<path d="M259.623 153.323C374.875 215.796 374.961 307.353 139.268 295.328C84.7421 292.546 9.78091 257.437 -0.479416 230.792C-8.54702 209.842 40.7753 133.343 67.9286 104.59C97.6291 73.14 144.599 90.974 259.623 153.323Z" fill="#F2F2F2"/>
<path d="M80.6766 276.426C-28.6282 218.418 -17.2551 108.98 220.764 89.2563C275.828 84.6934 347.612 115.82 354.704 146.188C360.28 170.066 300.58 268.65 269.386 306.951C235.266 348.845 189.766 334.32 80.6766 276.426Z" fill="#88DF86"/>
</svg>
