<svg width="375" height="342" viewBox="0 0 375 342" fill="none" xmlns="http://www.w3.org/2000/svg">
<path d="M366.309 174.486C336.771 241.896 229.285 286.346 55.36 268.194C-15.8502 228.499 107.636 144.187 193.714 98.589C279.793 52.9907 403.607 89.367 366.309 174.486Z" fill="#F2F2F2"/>
<path d="M253.181 287.138C181.672 325.978 90.509 284.72 18.8148 136.065C16.6165 45.8699 149.331 63.0471 230.755 86.9964C312.179 110.946 343.476 238.093 253.181 287.138Z" fill="#EFEFEF"/>
<path d="M35.1288 130.969C84.287 61.3012 200.287 50.8012 359.787 142.801C407 196.5 271.315 271.792 175.287 292.301C79.2591 312.811 -26.9435 218.939 35.1288 130.969Z" fill="#88DF86"/>
</svg>
