<svg width="18" height="18" viewBox="0 0 18 18" fill="none" xmlns="http://www.w3.org/2000/svg">
<path d="M9.23291 11.3306L9.44154 11.7897C9.47975 11.8737 9.55349 11.9319 9.63884 11.9454L10.1052 12.019C10.3201 12.0529 10.4059 12.3397 10.2504 12.5044L9.91292 12.8617C9.85114 12.9271 9.82297 13.0213 9.83761 13.1136L9.91725 13.6182C9.95398 13.8507 9.72934 14.0279 9.5371 13.9182L9.11995 13.68C9.04362 13.6364 8.95248 13.6364 8.87616 13.68L8.459 13.9182C8.26677 14.028 8.04212 13.8507 8.07886 13.6182L8.1585 13.1136C8.17304 13.0213 8.14487 12.9271 8.08318 12.8617L7.74567 12.5044C7.59017 12.3398 7.67597 12.0529 7.89086 12.019L8.35727 11.9454C8.44261 11.9319 8.51636 11.8737 8.55457 11.7897L8.76319 11.3306C8.85922 11.1191 9.13689 11.1191 9.23291 11.3306Z" fill="#F3F3F3"/>
<path d="M14.8887 2.2037H3.1075C2.5482 2.2037 2.09302 1.7094 2.09302 1.1019C2.09302 0.4943 2.5482 0 3.1075 0H14.8887C15.448 0 15.9031 0.4943 15.9031 1.1018C15.903 1.7094 15.448 2.2037 14.8887 2.2037ZM3.1075 0.6C2.85266 0.6 2.64542 0.8251 2.64542 1.1018C2.64542 1.3785 2.85266 1.6037 3.1075 1.6037H14.8887C15.1435 1.6037 15.3507 1.3786 15.3507 1.1019C15.3507 0.8252 15.1435 0.6 14.8887 0.6H3.1075Z" fill="#F3F3F3"/>
<path d="M8.99817 10.8003C6.63426 10.8003 4.57602 8.8694 3.8764 5.9955L2.89902 1.9807C2.87711 1.8907 2.89487 1.7947 2.94717 1.721C2.99937 1.6472 3.0803 1.604 3.16601 1.604H14.8301C14.9159 1.604 14.9968 1.6472 15.049 1.721C15.1013 1.7947 15.1191 1.8907 15.0971 1.9807L14.1198 5.9955C13.4203 8.8694 11.362 10.8003 8.99817 10.8003ZM3.5248 2.204L4.41048 5.8421C5.0451 8.4489 6.88864 10.2003 8.99808 10.2003C11.1075 10.2003 12.9512 8.4489 13.5858 5.8421L14.4715 2.204H3.5248Z" fill="#F3F3F3"/>
<path d="M12.8199 9.59996H11.9352C11.819 9.59996 11.7151 9.52096 11.6756 9.40226C11.6359 9.28366 11.6689 9.15076 11.758 9.06976C12.1146 8.74586 12.4357 8.36106 12.7122 7.92596C12.7618 7.84806 12.8423 7.80006 12.9295 7.79666C14.5556 7.73266 15.9487 6.21006 16.2718 4.19996H14.3442C14.2585 4.19996 14.1776 4.15676 14.1254 4.08296C14.0731 4.00916 14.0552 3.91326 14.0772 3.82326L14.3694 2.62326C14.4016 2.49166 14.5111 2.39996 14.6364 2.39996H17.1714C17.6283 2.39996 18 2.80376 18 3.29996C18 5.71086 16.8941 7.87526 15.114 8.94826C14.3966 9.38066 13.6248 9.59996 12.8199 9.59996ZM12.626 8.99996H12.8199C13.5299 8.99996 14.2115 8.80606 14.8459 8.42366C16.4264 7.47096 17.4476 5.45976 17.4476 3.29996C17.4476 3.13456 17.3237 2.99996 17.1714 2.99996H14.849L14.7029 3.59996H16.5894C16.6679 3.59996 16.7426 3.63616 16.7949 3.69956C16.8472 3.76286 16.8725 3.84746 16.864 3.93216C16.6251 6.34146 15.0143 8.22826 13.088 8.38786C12.9441 8.60396 12.7897 8.80836 12.626 8.99996Z" fill="#F3F3F3"/>
<path d="M6.05744 9.59996H5.18005C2.32386 9.59996 0 6.77376 0 3.29996C0 2.80376 0.371674 2.39996 0.828601 2.39996H3.3562C3.48151 2.39996 3.59116 2.49166 3.6232 2.62326L3.91542 3.82326C3.93733 3.91326 3.91956 4.00916 3.86727 4.08296C3.81506 4.15676 3.73414 4.19996 3.64842 4.19996H1.72828C2.05097 6.20616 3.44109 7.72866 5.06368 7.79646C5.15059 7.80006 5.23087 7.84806 5.2804 7.92576C5.55688 8.36076 5.87791 8.74566 6.23476 9.06976C6.32389 9.15076 6.35685 9.28366 6.31726 9.40226C6.27748 9.52096 6.17363 9.59996 6.05744 9.59996ZM0.828601 2.99996C0.676323 2.99996 0.552401 3.13456 0.552401 3.29996C0.552401 6.44296 2.62832 8.99996 5.18005 8.99996H5.36667C5.2027 8.80826 5.04821 8.60356 4.90412 8.38726C2.98186 8.22326 1.37428 6.33666 1.13592 3.93206C1.12745 3.84736 1.15268 3.76286 1.20497 3.69946C1.25736 3.63606 1.33211 3.59996 1.41046 3.59996H3.28964L3.14353 2.99996H0.828601Z" fill="#F3F3F3"/>
<path d="M12.3124 15.2604H5.68363C5.60096 15.2604 5.52251 15.2201 5.47004 15.1506C5.41765 15.0811 5.39657 14.9897 5.41286 14.9016L6.37008 9.69727C6.38776 9.60087 6.44788 9.52007 6.53083 9.48087C6.61388 9.44157 6.70926 9.44917 6.78613 9.50087C7.46669 9.95807 8.23149 10.1998 8.99795 10.1998H8.99804C9.76449 10.1998 10.5294 9.95807 11.2099 9.50087C11.2868 9.44907 11.382 9.44157 11.4652 9.48087C11.5481 9.52007 11.6082 9.60087 11.6259 9.69727L12.583 14.9016C12.5993 14.9897 12.5782 15.0811 12.5258 15.1506C12.4736 15.2201 12.3952 15.2604 12.3124 15.2604ZM6.0205 14.6604H11.9758L11.1593 10.2211C10.4807 10.6008 9.74093 10.7999 8.99822 10.7999C8.25552 10.7999 7.51567 10.6008 6.83705 10.2211L6.0205 14.6604Z" fill="#F3F3F3"/>
<path d="M12.865 18.0002H5.13133C4.97878 18.0002 4.85513 17.8659 4.85513 17.7002V14.9602C4.85513 14.7945 4.97878 14.6602 5.13133 14.6602H12.865C13.0175 14.6602 13.1412 14.7945 13.1412 14.9602V17.7002C13.1412 17.8659 13.0176 18.0002 12.865 18.0002ZM5.40753 17.4002H12.5887V15.2602H5.40753V17.4002Z" fill="#F3F3F3"/>
</svg>
